<svg id="scene" xmlns="http://www.w3.org/2000/svg" viewBox="0 0 1600 900" fill="none">
  <g id="assembly">
  <path id="skeleton" d="M70 160H1530A30 30 0 0 1 1560 190V610A30 30 0 0 1 1530 640H70A30 30 0 0 1 40 610V190A30 30 0 0 1 70 160Z" stroke="#17181d" stroke-width="8"/>
  <path class="part accent" d="M120 648H1285V674H120Z" fill="#C75D32"/>

  <path class="part dark" d="M120 230H174V528H120Z" fill="#15161A"/>
  <path class="part accent" d="M120 230H314V282H120Z" fill="#C75D32"/>
  <path class="part dark" d="M120 351H276V403H120Z" fill="#15161A"/>

  <path class="part dark" d="M370 230H424V528H370Z" fill="#15161A"/>
  <path class="part accent" d="M370 230H566V282H370Z" fill="#C75D32"/>
  <path class="part dark" d="M370 351H544V403H370Z" fill="#15161A"/>
  <path class="part accent" d="M370 476H566V528H370Z" fill="#C75D32"/>

  <path class="part dark" d="M620 230H674V528H620Z" fill="#15161A"/>
  <path class="part accent" d="M620 230H818V282H620Z" fill="#C75D32"/>
  <path class="part dark" d="M620 351H804V403H620Z" fill="#15161A"/>
  <path class="part accent" d="M764 282H818V403H764Z" fill="#C75D32"/>
  <path class="part dark" d="M674 403H756L842 528H768L674 434Z" fill="#15161A"/>

  <path class="part dark" d="M902 230H956V528H902Z" fill="#15161A"/>
  <path class="part accent" d="M902 230H1100V282H902Z" fill="#C75D32"/>
  <path class="part dark" d="M902 351H1086V403H902Z" fill="#15161A"/>
  <path class="part accent" d="M1046 282H1100V403H1046Z" fill="#C75D32"/>
  <path class="part dark" d="M956 403H1038L1124 528H1050L956 434Z" fill="#15161A"/>

  <path class="part accent" d="M1180 230H1244L1324 346H1256L1180 230Z" fill="#C75D32"/>
  <path class="part dark" d="M1394 230H1458L1378 346H1310L1394 230Z" fill="#15161A"/>
  <path class="part accent" d="M1330 346H1384V528H1330Z" fill="#C75D32"/>

  <text x="120" y="735" font-family="Arial Black, Impact, sans-serif" font-size="48" letter-spacing="3" fill="#191A1F">
    NOT A TOOL, A HUMAN–AI PROTOCOL
  </text>
  <text x="120" y="788" font-family="Inter, Arial, sans-serif" font-size="26" letter-spacing="5" fill="#6F6258">
    INTENT / EXECUTION / MEMORY / EVOLUTION
  </text>
  </g>
</svg>
